<svg xmlns="http://www.w3.org/2000/svg" viewBox="0 0 64 64">
  <defs>
    <linearGradient id="pfire" x1="0.5" y1="1" x2="0.5" y2="0">
      <stop offset="0%" stop-color="#3661ED"/>
      <stop offset="60%" stop-color="#6366f1"/>
      <stop offset="100%" stop-color="#f97316"/>
    </linearGradient>
  </defs>
  <g transform="translate(8, -7) scale(2.15)">
    <path d="M11.25 23.7869C15.0938 23.7869 18.2097 20.5722 18.2097 16.6066C18.2097 12.641 15.0938 9.42623 11.25 9.42623C7.40624 9.42623 4.29025 12.641 4.29025 16.6066V20.0031C4.29025 20.3578 4.13567 20.6936 3.86928 20.9178L0.466789 23.7808C0.279963 23.938 0 23.8009 0 23.5521V16.6066C0 10.1964 5.0368 5 11.25 5C17.4632 5 22.5 10.1964 22.5 16.6066C22.5 23.0167 17.4632 28.2131 11.25 28.2131C10.5783 28.2131 9.9204 28.1524 9.28112 28.036C9.11229 28.0052 8.93805 28.049 8.80534 28.161L0.934166 34.802C0.560645 35.1172 0 34.8429 0 34.3451V29.9844C0 29.8958 0.0386453 29.8118 0.105246 29.7558L4.29025 26.2343V26.2525L6.08935 24.7346C7.23198 23.7706 8.68291 23.4324 10.0269 23.6771C10.421 23.7489 10.8295 23.7869 11.25 23.7869Z" fill="url(#pfire)"/>
  </g>
</svg>
