<svg width="24" height="30" viewBox="0 0 24 30" fill="none" xmlns="http://www.w3.org/2000/svg">
<path d="M12 18.8187C15.9292 18.8187 19.1144 15.604 19.1144 11.6384C19.1144 7.67277 15.9292 4.45803 12 4.45803C8.07082 4.45803 4.88559 7.67277 4.88559 11.6384V15.0349C4.88559 15.3896 4.72758 15.7254 4.45526 15.9496L0.977162 18.8126C0.786184 18.9698 0.5 18.8327 0.5 18.5839V11.6384C0.5 5.22823 5.64873 0.0317993 12 0.0317993C18.3513 0.0317993 23.5 5.22823 23.5 11.6384C23.5 18.0485 18.3513 23.2449 12 23.2449C11.3134 23.2449 10.6409 23.1842 9.98736 23.0678C9.81479 23.037 9.63667 23.0808 9.50101 23.1928L1.45492 29.8338C1.0731 30.1489 0.5 29.8747 0.5 29.3769V25.0162C0.5 24.9276 0.539504 24.8436 0.607584 24.7876L4.88559 21.2661V21.2843L6.72467 19.7664C7.89269 18.8024 9.37586 18.4642 10.7497 18.7089C11.1526 18.7807 11.5701 18.8187 12 18.8187Z" fill="#3661ED"/>
</svg>
