<svg width="16" height="16" viewBox="0 0 16 16" fill="none" xmlns="http://www.w3.org/2000/svg">
<g clip-path="url(#clip0_2173_437)">
<path d="M9.09193 5.53453C9.71311 5.66253 10.3024 5.90254 10.8599 6.27054L9.02822 8.44653C8.00885 7.98253 6.81428 8.25454 6.09754 9.10254C5.3808 9.95054 5.31709 11.1985 5.95419 12.1105L4.12252 14.3025C2.3227 12.3505 2.24306 9.35854 3.96324 7.31054L10.0954 -0.00146484L12.2456 1.80654L9.09193 5.53453Z" fill="#13BBB2"/>
<path d="M12.0385 14.1108C10.3024 16.1748 7.3399 16.5908 5.12596 15.1508L6.95764 12.9748C7.977 13.4388 9.17157 13.1668 9.88831 12.3188C10.6051 11.4708 10.6688 10.2228 10.0317 9.31077L11.8633 7.13477C13.6791 9.07077 13.7587 12.0788 12.0385 14.1108Z" fill="#192232"/>
</g>
<defs>
<clipPath id="clip0_2173_437">
<rect width="16" height="16" fill="white"/>
</clipPath>
</defs>
</svg>
