<svg width="16" height="16" viewBox="0 0 16 16" fill="none" xmlns="http://www.w3.org/2000/svg">
<g clip-path="url(#clip0_2173_465)">
<path d="M11.0001 1.90909V13.9091C11.0001 15.2518 11.9273 16 12.9092 16C13.8183 16 14.8183 15.3637 14.8183 13.9091V2C14.8183 0.769092 13.9092 0 12.9092 0C11.9092 0 11.0001 0.848183 11.0001 1.90909Z" fill="#F9AB00"/>
<path d="M5.99992 7.99991V13.909C5.99992 15.2517 6.9272 15.9999 7.90903 15.9999C8.81812 15.9999 9.81813 15.3636 9.81813 13.909V8.09082C9.81813 6.85991 8.90903 6.09082 7.90903 6.09082C6.90902 6.09082 5.99992 6.939 5.99992 7.99991Z" fill="#E37400"/>
<path d="M2.90901 15.9998C3.96338 15.9998 4.81812 15.1451 4.81812 14.0907C4.81812 13.0364 3.96338 12.1816 2.90901 12.1816C1.85464 12.1816 0.999908 13.0364 0.999908 14.0907C0.999908 15.1451 1.85464 15.9998 2.90901 15.9998Z" fill="#E37400"/>
</g>
<defs>
<clipPath id="clip0_2173_465">
<rect width="16" height="16" fill="white"/>
</clipPath>
</defs>
</svg>
