<svg width="16" height="16" viewBox="0 0 16 16" fill="none" xmlns="http://www.w3.org/2000/svg">
<g clip-path="url(#clip0_2173_441)">
<path d="M15.07 6.85031H10.7076C10.4667 6.85031 10.2794 7.11698 10.3597 7.33031L11.4034 10.0236C11.457 10.1303 11.3499 10.2636 11.2161 10.2636L9.87795 10.1836C9.82442 10.1836 9.7709 10.2103 9.71737 10.2636L8.70038 11.7303C8.64685 11.8103 8.5398 11.837 8.43275 11.7836L6.8805 10.7436C6.82697 10.6903 6.74669 10.6903 6.6664 10.7436L4.52536 12.1836C4.39155 12.2903 4.20421 12.157 4.25773 11.997L4.87328 9.86365C4.90004 9.78365 4.84652 9.67698 4.76623 9.65031L3.64218 9.19698C3.53513 9.14365 3.48161 9.01031 3.5619 8.93031L4.55212 7.70365C4.60565 7.65031 4.60565 7.54365 4.55212 7.49031L3.72247 6.29031C3.64218 6.18365 3.72247 6.02365 3.85629 6.02365L5.16767 5.91698C5.27472 5.91698 5.32825 5.83698 5.32825 5.73031L5.2212 3.91698C5.2212 3.78365 5.35501 3.70365 5.46206 3.73031L7.06784 4.39698C7.14813 4.42365 7.22842 4.39698 7.28194 4.34365L8.40599 3.11698C8.48628 3.01031 8.64685 3.03698 8.70038 3.17031L9.36945 4.87698C9.44974 5.09031 9.71737 5.17031 9.90471 5.03698L12.5275 3.09031C12.8219 2.87698 12.6345 2.39698 12.2598 2.45031L10.5738 2.66365C10.4935 2.66365 10.4132 2.63698 10.3864 2.55698L9.4765 0.236982C9.36945 -0.00301846 9.07506 -0.0563518 8.88772 0.130315L6.90726 2.26365C6.85374 2.31698 6.77345 2.34365 6.69316 2.31698L4.09715 1.22365C3.85629 1.11698 3.61542 1.27698 3.58866 1.54365L3.48161 4.21031C3.48161 4.31698 3.40132 4.37031 3.32103 4.37031L0.939128 4.53031C0.671499 4.55698 0.510921 4.85031 0.671499 5.09031L2.25051 7.41031C2.30404 7.46365 2.30404 7.57031 2.25051 7.62365L0.644736 9.46365C0.510921 9.59698 0.59121 9.89031 0.805313 9.97031L2.65196 10.7703C2.73224 10.797 2.78577 10.9036 2.75901 10.9836L1.58144 15.5436C1.50115 15.8636 1.87583 16.1036 2.14346 15.917L6.55934 12.7703C6.61287 12.717 6.69316 12.717 6.77345 12.7703L8.78067 14.1836C8.94125 14.2903 9.18211 14.2636 9.28916 14.077L10.547 12.157C10.5738 12.1036 10.6541 12.077 10.7076 12.077L13.705 12.4503C13.9459 12.477 14.1868 12.2903 14.1065 12.0503L12.8486 8.82365C12.8219 8.74365 12.8486 8.63698 12.9557 8.58365L15.2305 7.51698C15.5517 7.35698 15.4446 6.85031 15.07 6.85031Z" fill="#8039E9"/>
</g>
<defs>
<clipPath id="clip0_2173_441">
<rect width="16" height="16" fill="white"/>
</clipPath>
</defs>
</svg>
