<svg width="16" height="16" viewBox="0 0 16 16" fill="none" xmlns="http://www.w3.org/2000/svg">
<g clip-path="url(#clip0_2173_455)">
<path d="M5.3961 2.62618C5.68695 1.8678 6.09476 1.31896 6.8527 0.979273C7.5139 0.687084 8.26393 0.668784 8.9386 0.928381C9.37771 1.095 9.76338 1.37767 10.0545 1.74626C10.2816 2.03887 10.3488 2.20161 10.5217 2.51044L10.9952 3.3436L12.5083 5.96505L14.636 9.6604C14.8798 10.078 15.1198 10.4978 15.3559 10.9198C15.4867 11.1517 15.6567 11.4148 15.7559 11.6599C16.293 12.9867 15.6662 14.554 14.3366 15.1073C13.248 15.5567 11.9788 15.2714 11.2352 14.3522C11.0078 14.0711 10.8638 13.8052 10.6859 13.4955L10.1659 12.5896L8.68768 10.0246C8.45479 9.62143 8.21496 9.18902 7.97591 8.79297C7.90923 8.60338 7.56134 8.03593 7.43776 7.82065L6.41791 6.05537C6.14877 5.59202 5.87181 5.13329 5.61773 4.66149C5.23831 3.95696 5.26873 3.37544 5.3961 2.62618Z" fill="#4388C8"/>
<path d="M5.39611 2.62598C5.26873 3.37524 5.23831 3.95676 5.61773 4.66129C5.87181 5.13309 6.14878 5.59182 6.41792 6.05516L7.43777 7.82045C7.56134 8.03573 7.90923 8.60318 7.97592 8.79277C7.67967 9.35857 7.301 9.97621 6.97595 10.5309L5.18364 13.5786C4.94455 14.2191 4.31714 14.8951 3.67523 15.1387C3.02133 15.3869 2.21084 15.3736 1.5708 15.0933C0.694909 14.7098 0.161117 13.9339 0.00462308 13.007C0.00308205 13.0034 0.00154103 12.9998 0 12.9961V12.2852C0.0148016 12.2596 0.0808252 11.9832 0.0958031 11.9301C0.189873 11.5966 0.399995 11.1685 0.628431 10.9025C1.593 9.15187 2.58263 7.41515 3.59702 5.69288L4.6328 3.90115C4.88717 3.46163 5.11706 3.05098 5.39611 2.62598Z" fill="#F8BB17"/>
<path d="M0.628431 10.9026C0.796316 10.7657 0.987866 10.5933 1.15921 10.4712C1.67898 10.1006 2.30395 9.95302 2.937 10.0161C3.63922 10.0882 4.28467 10.4343 4.73328 10.9793C5.17936 11.5262 5.37087 12.2349 5.29664 12.9329C5.27475 13.1387 5.22442 13.3736 5.18364 13.5786C4.94455 14.2191 4.31714 14.8952 3.67523 15.1388C3.02133 15.387 2.21084 15.3737 1.5708 15.0934C0.694909 14.7098 0.161117 13.934 0.00462308 13.007C0.00308205 13.0034 0.00154103 12.9998 0 12.9962V12.2852C0.0148016 12.2596 0.0808252 11.9833 0.0958031 11.9302C0.189873 11.5967 0.399995 11.1685 0.628431 10.9026Z" fill="#33A951"/>
</g>
<defs>
<clipPath id="clip0_2173_455">
<rect width="16" height="16" fill="white"/>
</clipPath>
</defs>
</svg>
