<svg width="16" height="16" viewBox="0 0 16 16" fill="none" xmlns="http://www.w3.org/2000/svg">
<mask id="mask0_2173_396" style="mask-type:luminance" maskUnits="userSpaceOnUse" x="1" y="0" width="14" height="16">
<path d="M14.7256 0H1.27432V16H14.7256V0Z" fill="white"/>
</mask>
<g mask="url(#mask0_2173_396)">
<path fill-rule="evenodd" clip-rule="evenodd" d="M11.5635 4.12507V5.76831H11.561C13.0661 5.99826 14.2684 7.12803 14.5768 8.60219C14.8853 10.0763 14.2349 11.5848 12.9456 12.3859C11.6562 13.1871 9.99899 13.1125 8.78865 12.1987L7.43536 13.5363C7.47038 13.6449 7.48902 13.7579 7.49062 13.8719C7.49062 14.5201 6.95896 15.0456 6.30312 15.0456C5.64728 15.0456 5.11561 14.5201 5.11561 13.8719C5.11561 13.2236 5.64728 12.6981 6.30312 12.6981C6.41836 12.6997 6.53271 12.7181 6.64253 12.7527L8.01056 11.4006C7.14803 10.1877 7.12575 8.57634 7.95438 7.34071L3.45916 3.88178C2.856 4.22397 2.09233 4.09771 1.63468 3.58013C1.17703 3.06256 1.15269 2.29763 1.57653 1.75265C2.00037 1.20767 2.75451 1.03423 3.37822 1.33827C4.00193 1.64232 4.32175 2.33929 4.1423 3.0034L8.71438 6.52293C9.21315 6.12649 9.80902 5.86735 10.4417 5.77173V4.12507C9.99253 3.91771 9.70459 3.47291 9.70238 2.98291V2.9445C9.70428 2.24612 10.2766 1.68044 10.9832 1.67856H11.0221C11.7286 1.68044 12.3009 2.24612 12.3028 2.9445V2.98291C12.3007 3.47291 12.0127 3.91771 11.5635 4.12507ZM9.13235 9.32828C9.13062 10.3499 9.96681 11.1797 11.0004 11.1821L11.0047 11.1829C12.0388 11.1829 12.8771 10.3543 12.8771 9.33222C12.8776 8.31056 12.0404 7.48182 11.0067 7.48071C9.97315 7.4796 9.13413 8.30662 9.13235 9.32828Z" fill="#FF4800"/>
</g>
</svg>
