<svg width="16" height="16" viewBox="0 0 16 16" fill="none" xmlns="http://www.w3.org/2000/svg">
<g clip-path="url(#clip0_3329_70889)">
<mask id="mask0_3329_70889" style="mask-type:luminance" maskUnits="userSpaceOnUse" x="0" y="0" width="16" height="16">
<path d="M16 0H0V16H16V0Z" fill="white"/>
</mask>
<g mask="url(#mask0_3329_70889)">
<path fill-rule="evenodd" clip-rule="evenodd" d="M2.8491 0.0810547H13.1509C14.7244 0.0810547 16 1.3496 16 2.91442V13.1593C16 14.7242 14.7244 15.9927 13.1509 15.9927H2.8491C1.27559 15.9927 0 14.7242 0 13.1593V2.91442C0 1.3496 1.27559 0.0810547 2.8491 0.0810547ZM10.6277 7.32685H7.5629C7.33095 7.32685 7.14292 7.51384 7.14292 7.7445V8.32989C7.14292 8.56055 7.33095 8.74754 7.5629 8.74754H10.6277C10.8596 8.74754 11.0476 8.56055 11.0476 8.32989V7.7445C11.0476 7.51384 10.8596 7.32685 10.6277 7.32685ZM7.5629 4.34313H11.2943C11.5262 4.34313 11.7142 4.53012 11.7142 4.76078V5.34617C11.7142 5.57684 11.5262 5.76382 11.2943 5.76382H7.5629C7.33095 5.76382 7.14292 5.57684 7.14292 5.34617V4.76078C7.14292 4.53012 7.33095 4.34313 7.5629 4.34313ZM11.7142 11.313V10.7276C11.7142 10.497 11.5261 10.31 11.2943 10.31H6.80628C6.20285 10.31 5.71434 9.82409 5.71434 9.22396V4.76078C5.71434 4.53024 5.5262 4.34313 5.29436 4.34313H4.70573C4.4739 4.34313 4.28575 4.53024 4.28575 4.76078V10.0947C4.3422 10.9729 5.04776 11.6745 5.93071 11.7306H11.2943C11.5261 11.7306 11.7142 11.5436 11.7142 11.313Z" fill="#316BFF"/>
<path d="M7.56256 4.34277H11.2939C11.5258 4.34277 11.7138 4.52976 11.7138 4.76043V5.34581C11.7138 5.57648 11.5258 5.76347 11.2939 5.76347H7.56256C7.33061 5.76347 7.14258 5.57648 7.14258 5.34581V4.76043C7.14258 4.52976 7.33061 4.34277 7.56256 4.34277Z" fill="white"/>
<path d="M7.56256 7.32715H10.6274C10.8593 7.32715 11.0473 7.51414 11.0473 7.7448V8.33019C11.0473 8.56085 10.8593 8.74784 10.6274 8.74784H7.56256C7.33061 8.74784 7.14258 8.56085 7.14258 8.33019V7.7448C7.14258 7.51414 7.33061 7.32715 7.56256 7.32715Z" fill="white"/>
<path d="M11.7146 10.7272V11.3126C11.7146 11.5432 11.5265 11.7302 11.2947 11.7302H5.93109C5.04814 11.6741 4.34257 10.9725 4.28613 10.0943V4.76043C4.28613 4.52989 4.47428 4.34277 4.70611 4.34277H5.29474C5.52657 4.34277 5.71471 4.52989 5.71471 4.76043V9.2236C5.71471 9.82374 6.20323 10.3096 6.80665 10.3096H11.2947C11.5265 10.3096 11.7146 10.4966 11.7146 10.7272Z" fill="white"/>
</g>
</g>
<defs>
<clipPath id="clip0_3329_70889">
<rect width="16" height="16" fill="white"/>
</clipPath>
</defs>
</svg>
