<svg width="16" height="16" viewBox="0 0 16 16" fill="none" xmlns="http://www.w3.org/2000/svg">
<g clip-path="url(#clip0_2173_499)">
<circle cx="8" cy="8" r="8" fill="#101F2A"/>
<path d="M9.58049 5.60107C9.89636 5.29363 10.1614 5.1123 10.6115 5.12624C11.3535 5.15658 11.9607 5.4883 12.4751 6.01419C13.0788 6.63147 13.208 7.20207 13.2167 8.02783C13.2396 10.2144 10.8896 11.3654 8.99417 10.6421C8.77153 10.5664 8.54197 10.5045 8.32636 10.4095C7.72149 10.143 7.24697 9.72185 6.74502 9.31519C6.23888 8.90514 5.84536 8.54267 5.45367 8.01864C5.18725 7.66219 4.84602 7.24985 4.36439 7.25019C3.83155 7.24492 3.64416 7.84857 3.65617 8.28652C3.67716 9.05131 4.34252 9.63963 4.79764 10.1906C4.83786 10.2388 4.93583 10.3396 4.91045 10.3897C4.82842 10.4181 4.63002 10.3212 4.5527 10.2827C4.06249 10.0392 3.63072 9.62363 3.28825 9.19989C2.73291 8.5128 2.61555 7.31338 3.00084 6.52435C3.26299 5.98752 3.87699 5.51169 4.44341 5.34449C5.06995 5.13658 5.66058 5.19528 6.2488 5.48682C7.2558 5.98591 7.68422 7.02252 8.37716 7.8191C8.86356 8.37825 9.62674 9.04921 10.3877 9.11631C10.6971 9.15771 11.002 9.14407 11.3006 9.0511C11.6593 8.93943 12.0055 8.59839 12.1659 8.26627C12.6233 7.31883 12.0484 6.20416 11.1442 5.77972C10.6804 5.56205 10.209 5.60125 9.72436 5.6241C9.64824 5.6298 9.6413 5.63596 9.58049 5.60107Z" fill="#C8DCE8"/>
<path d="M10.1755 5.84967C11.0647 5.73088 11.6463 6.26088 12.0329 7.00746C12.2008 7.33178 12.2038 7.56087 12.1519 7.9149C11.8636 7.4719 11.5833 7.04034 11.0227 6.95596C10.7829 6.91987 10.602 6.93032 10.3705 6.99965C10.1027 7.09724 9.9431 7.24582 9.71328 7.37018C9.34578 7.56907 9.10631 7.69356 8.76803 7.94801C8.59574 7.78674 8.45094 7.62132 8.3238 7.42256C8.39563 7.24937 8.54275 7.01557 8.66538 6.87579C9.21316 6.25143 9.33019 5.94223 10.1755 5.84967Z" fill="#C8DCE8"/>
<path d="M7.75636 10.4383C7.28672 10.6685 6.57231 10.7269 6.05515 10.6047C5.37053 10.4429 5.06587 10.034 4.60514 9.53695C4.1259 9.01998 3.71986 8.46663 3.89829 7.71716C3.97556 7.39266 4.34203 7.52829 4.56489 7.59044C4.53717 7.66504 4.52214 7.70979 4.50387 7.78704C4.47573 7.88665 4.44889 8.01976 4.44636 8.12329C4.40295 8.3423 4.53945 8.64209 4.64687 8.83034C5.01029 9.48929 5.72103 9.81327 6.43678 9.93068C7.00606 10.0241 7.40784 9.86588 7.75636 10.4383Z" fill="#C8DCE8"/>
<path d="M10.5115 7.11345C10.7344 7.07318 11.1908 7.15215 11.4143 7.22399C11.0233 7.54123 10.6985 7.6536 10.2928 7.93641C10.0493 8.10615 9.916 8.32092 9.70356 8.48792C9.66061 8.51563 9.60841 8.54138 9.55825 8.52579C9.30589 8.44729 9.05348 8.21124 8.85447 8.04956C9.24306 7.90842 9.64013 7.59126 10.0116 7.39215C10.1922 7.29535 10.309 7.1947 10.5115 7.11345Z" fill="#EDC05A"/>
<path d="M4.77071 8.6005C4.78457 8.54781 4.77727 8.5364 4.81316 8.50928C4.91419 8.53432 5.28333 8.66768 5.38653 8.71351C5.79455 8.86486 6.45575 9.38184 6.70996 9.73981C6.13674 9.59725 5.45896 9.52453 5.07757 9.06156C4.96872 8.92942 4.88785 8.74917 4.78041 8.61267L4.77071 8.6005Z" fill="#EDC05A"/>
<path d="M4.56489 7.59033C4.85087 7.66671 4.97183 7.84952 5.17161 8.05746C5.29489 8.18579 5.50353 8.39669 5.47642 8.59038C5.47111 8.62143 5.40956 8.68913 5.38653 8.71347C5.28333 8.66764 4.91419 8.53429 4.81315 8.50924C4.77726 8.53636 4.78456 8.54777 4.7707 8.60046C4.65842 8.5395 4.56995 8.31529 4.54853 8.19077C4.49751 8.13255 4.52162 8.15002 4.44636 8.12318C4.44889 8.01964 4.47573 7.88654 4.50387 7.78693C4.52214 7.70968 4.53717 7.66493 4.56489 7.59033Z" fill="#1C3C60"/>
<path d="M4.50387 7.78711C4.57459 7.81889 4.54712 8.10927 4.54853 8.19095C4.49751 8.13273 4.52162 8.1502 4.44636 8.12336C4.44889 8.01983 4.47573 7.88672 4.50387 7.78711Z" fill="#0F212D"/>
<path d="M9.58048 5.60107C9.64129 5.63596 9.64823 5.62981 9.72436 5.62411C9.56312 5.6694 9.54322 5.77426 9.43272 5.89614C9.469 5.78292 9.4912 5.68234 9.58048 5.60107Z" fill="#8C8E82"/>
</g>
<defs>
<clipPath id="clip0_2173_499">
<rect width="16" height="16" fill="white"/>
</clipPath>
</defs>
</svg>
