<svg width="16" height="16" viewBox="0 0 16 16" fill="none" xmlns="http://www.w3.org/2000/svg">
<g clip-path="url(#clip0_2173_406)">
<path fill-rule="evenodd" clip-rule="evenodd" d="M7.1152 0.491211C9.5656 0.491211 13.268 1.24321 14.992 2.96641C15.4288 3.40321 16 4.25841 16 5.51201C16 7.74081 14.204 11.16 12.2216 13.144C11.1968 14.168 9.5656 15.5088 7.372 15.5088C5.228 15.5088 3.5904 14.052 3.116 13.5776C1.3008 11.7616 0 9.00481 0 6.43521C0 4.81441 0.4624 3.39521 1.6416 2.21681C2.7336 1.12321 4.616 0.491211 7.1152 0.491211ZM9.9344 9.39521C10.7616 8.56721 10.9848 7.54721 10.9848 6.98721C10.9848 6.58001 10.8776 5.98401 10.3688 5.47521C9.588 4.69521 8.7248 4.47521 7.7848 4.47521C6.5936 4.47521 5.7936 4.85121 5.2608 5.38401C4.8424 5.80161 4.4816 6.44481 4.4816 7.35681C4.4816 8.26881 4.968 9.15041 5.4976 9.68081C5.988 10.1696 6.7568 10.5328 7.532 10.5328C8.308 10.5328 9.1072 10.2224 9.9344 9.39521Z" fill="#5951FF"/>
</g>
<defs>
<clipPath id="clip0_2173_406">
<rect width="16" height="16" fill="white"/>
</clipPath>
</defs>
</svg>
