<svg width="16" height="16" viewBox="0 0 16 16" fill="none" xmlns="http://www.w3.org/2000/svg">
<path d="M5.14116 6.66553C4.54886 6.66553 3.96446 6.79978 3.42744 7.0525V7.6211C3.42744 10.6853 5.85193 13.2045 8.91609 13.3309C9.06614 12.9044 9.14511 12.4543 9.14511 12.0041V10.6695C9.14511 8.45822 7.35242 6.67342 5.14906 6.67342L5.14116 6.66553Z" fill="#B6BCF7"/>
<path d="M9.14511 0C5.99408 0 3.43534 2.55874 3.43534 5.70977V7.04442C5.43337 6.09674 7.81836 6.94965 8.75814 8.94768C9.01086 9.4847 9.14511 10.0691 9.14511 10.6614V11.9961C9.14511 12.4462 9.06614 12.8963 8.91609 13.3228C8.99506 13.3228 9.06614 13.3228 9.14511 13.3228C12.2962 13.3228 14.8549 10.7641 14.8549 7.61303V5.70977C14.8549 2.55874 12.2962 0 9.14511 0Z" fill="#434EE1"/>
<path d="M3.42744 7.62085V7.05225C2.02961 7.71562 1.14511 9.12135 1.14511 10.6692V12.0039C1.14511 14.2151 2.93781 15.9999 5.14117 15.9999C6.83909 15.9999 8.34748 14.9259 8.91609 13.3306C5.85193 13.2122 3.42744 10.6929 3.42744 7.62085Z" fill="#0A1567"/>
</svg>
