<svg width="16" height="16" viewBox="0 0 16 16" fill="none" xmlns="http://www.w3.org/2000/svg">
<g clip-path="url(#clip0_2173_376)">
<mask id="mask0_2173_376" style="mask-type:luminance" maskUnits="userSpaceOnUse" x="0" y="2" width="16" height="12">
<path d="M0.0262451 2.41943H15.9737V13.5808H0.0262451V2.41943Z" fill="white"/>
</mask>
<g mask="url(#mask0_2173_376)">
<path fill-rule="evenodd" clip-rule="evenodd" d="M6.66057 3.63713C7.17497 3.10122 7.89122 2.76868 8.68331 2.76868C9.7362 2.76868 10.6549 3.35581 11.144 4.22755C11.5816 4.03201 12.0557 3.93123 12.535 3.93181C14.4341 3.93181 15.9737 5.48487 15.9737 7.40077C15.9737 9.31666 14.4341 10.8698 12.535 10.8698C12.3031 10.8698 12.0766 10.8465 11.8575 10.8023C11.4268 11.5706 10.6057 12.0898 9.66353 12.0898C9.28243 12.0903 8.90626 12.0037 8.56375 11.8366C8.12712 12.864 7.10945 13.5843 5.92375 13.5843C4.6887 13.5843 3.6361 12.8029 3.23235 11.7071C3.0524 11.745 2.86898 11.7641 2.68507 11.764C1.21465 11.764 0.0227356 10.5596 0.0227356 9.07397C0.0227356 8.07822 0.558179 7.20888 1.35402 6.74383C1.1854 6.35556 1.09864 5.93671 1.09913 5.51341C1.09913 3.80469 2.48621 2.41943 4.19721 2.41943C5.20175 2.41943 6.09453 2.89697 6.66057 3.63713Z" fill="#00A1E0"/>
</g>
<path fill-rule="evenodd" clip-rule="evenodd" d="M2.33306 8.20926C2.32304 8.2354 2.33664 8.24085 2.33986 8.24548C2.36981 8.26717 2.40023 8.28288 2.43094 8.30052C2.59357 8.38661 2.7473 8.41187 2.90789 8.41187C3.2351 8.41187 3.43835 8.23792 3.43835 7.95778V7.95227C3.43835 7.69322 3.2089 7.59909 2.99387 7.53117L2.96579 7.52208C2.80363 7.46945 2.66367 7.42392 2.66367 7.31707V7.31162C2.66367 7.22014 2.74549 7.15291 2.87226 7.15291C3.01321 7.15291 3.18024 7.19974 3.28796 7.25923C3.28796 7.25923 3.31973 7.27974 3.33127 7.24909C3.33755 7.2325 3.39199 7.08586 3.39779 7.06998C3.40401 7.05281 3.39311 7.03986 3.38191 7.03318C3.25889 6.95822 3.08899 6.90723 2.91311 6.90723L2.88046 6.90734C2.58097 6.90734 2.37186 7.08844 2.37186 7.34761V7.35318C2.37186 7.62629 2.60254 7.71508 2.81863 7.77679L2.85333 7.78758C3.01069 7.83587 3.1466 7.8776 3.1466 7.98831V7.99382C3.1466 8.09521 3.05828 8.17052 2.91604 8.17052C2.86089 8.17052 2.68483 8.16959 2.49459 8.04926C2.47155 8.03584 2.45842 8.02617 2.44067 8.01533C2.43129 8.00964 2.40785 7.99939 2.39765 8.0301L2.33306 8.20926ZM7.1231 8.20926C7.11308 8.2354 7.12667 8.24085 7.13001 8.24548C7.15985 8.26717 7.19032 8.28288 7.22097 8.30052C7.38367 8.38661 7.5374 8.41187 7.69793 8.41187C8.02514 8.41187 8.22845 8.23792 8.22845 7.95778V7.95227C8.22845 7.69322 7.99905 7.59909 7.78396 7.53117L7.75589 7.52208C7.59372 7.46945 7.45371 7.42392 7.45371 7.31707V7.31162C7.45371 7.22014 7.53558 7.15291 7.66241 7.15291C7.8033 7.15291 7.97028 7.19974 8.078 7.25923C8.078 7.25923 8.10977 7.27974 8.12137 7.24909C8.12758 7.2325 8.18209 7.08586 8.18783 7.06998C8.1941 7.05281 8.18314 7.03986 8.17201 7.03318C8.04893 6.95822 7.87908 6.90723 7.7032 6.90723L7.6705 6.90734C7.37107 6.90734 7.16196 7.08844 7.16196 7.34761V7.35318C7.16196 7.62629 7.39258 7.71508 7.60873 7.77679L7.64336 7.78758C7.80078 7.83587 7.9367 7.8776 7.9367 7.98831V7.99382C7.9367 8.09521 7.84831 8.17052 7.70619 8.17052C7.65092 8.17052 7.47486 8.16959 7.28468 8.04926C7.26165 8.03584 7.24817 8.02658 7.2307 8.01533C7.22478 8.01158 7.19718 8.00079 7.18774 8.0301L7.1231 8.20926ZM10.3931 7.66046C10.3931 7.8187 10.3636 7.94365 10.3056 8.03174C10.2479 8.11907 10.1609 8.16156 10.0395 8.16156C9.91812 8.16156 9.83155 8.11912 9.77482 8.03186C9.71756 7.94371 9.68849 7.8187 9.68849 7.66046C9.68849 7.50233 9.71756 7.37779 9.77482 7.29058C9.83155 7.20414 9.91812 7.16217 10.0395 7.16217C10.1609 7.16217 10.2479 7.20419 10.3056 7.29064C10.3637 7.37779 10.3931 7.50233 10.3931 7.66046ZM10.6664 7.36701C10.6395 7.27622 10.5977 7.19634 10.5421 7.1297C10.4863 7.06289 10.4158 7.00915 10.3322 6.97023C10.2488 6.93126 10.1503 6.91151 10.0395 6.91151C9.92867 6.91151 9.83015 6.93126 9.74663 6.97023C9.66317 7.00915 9.59261 7.06289 9.53687 7.12982C9.48131 7.19657 9.43941 7.27634 9.41262 7.36701C9.38596 7.45709 9.37242 7.55584 9.37242 7.66046C9.37242 7.76513 9.38596 7.86394 9.41262 7.95391C9.43941 8.04452 9.48119 8.12434 9.53693 8.19121C9.59267 8.25814 9.66341 8.31142 9.74675 8.3494C9.83032 8.38737 9.92878 8.40671 10.0395 8.40671C10.1503 8.40671 10.2486 8.38737 10.3321 8.3494C10.4156 8.31142 10.4862 8.25814 10.5421 8.19121C10.5977 8.12457 10.6395 8.04463 10.6664 7.95391C10.693 7.86377 10.7065 7.76501 10.7065 7.66046C10.7065 7.55596 10.693 7.45715 10.6664 7.36701ZM12.9091 8.11918C12.9002 8.09263 12.8742 8.10266 12.8742 8.10266C12.8346 8.11783 12.7924 8.1319 12.7472 8.13893C12.7018 8.14608 12.6514 8.14966 12.5976 8.14966C12.4655 8.14966 12.3603 8.11033 12.2852 8.03262C12.2098 7.95485 12.1674 7.82919 12.1679 7.65923C12.1683 7.50474 12.2057 7.38834 12.2728 7.29961C12.3392 7.21146 12.4407 7.16622 12.5757 7.16622C12.6884 7.16622 12.7744 7.17929 12.8645 7.20753C12.8645 7.20753 12.8859 7.21685 12.8961 7.18866C12.9201 7.12226 12.9378 7.07502 12.9633 7.00205C12.9706 6.98125 12.9528 6.97246 12.9463 6.96994C12.9109 6.95611 12.8272 6.93342 12.7641 6.92387C12.7051 6.91485 12.6361 6.91016 12.5592 6.91016C12.4445 6.91016 12.3422 6.92979 12.2548 6.96871C12.1675 7.00756 12.0935 7.06125 12.0348 7.128C11.9761 7.19487 11.9315 7.27476 11.9019 7.36537C11.8723 7.45551 11.8574 7.55444 11.8574 7.65934C11.8574 7.88586 11.9185 8.0689 12.0391 8.20299C12.1601 8.33756 12.3415 8.40589 12.5783 8.40589C12.7182 8.40589 12.8618 8.37759 12.9652 8.33691C12.9652 8.33691 12.9848 8.32742 12.9763 8.30444L12.9091 8.11918ZM13.387 7.50872C13.4001 7.42075 13.4242 7.34767 13.4617 7.29058C13.5184 7.20414 13.6047 7.15649 13.7261 7.15649C13.8475 7.15649 13.9275 7.20419 13.9852 7.29064C14.0233 7.34778 14.0399 7.42392 14.0464 7.50884L13.387 7.50872ZM14.3065 7.31549C14.2832 7.22793 14.2259 7.13949 14.1882 7.09905C14.1288 7.03493 14.0705 6.99004 14.0127 6.96525C13.9289 6.92967 13.8389 6.91139 13.7479 6.91151C13.6325 6.91151 13.5277 6.93102 13.4426 6.97087C13.3575 7.01085 13.2859 7.06547 13.2298 7.13334C13.1736 7.20115 13.1315 7.28185 13.1046 7.3734C13.0776 7.46441 13.064 7.56364 13.064 7.66843C13.064 7.77498 13.0781 7.87432 13.1059 7.96364C13.134 8.05372 13.1791 8.13278 13.2399 8.1986C13.3007 8.26465 13.3789 8.31646 13.4724 8.35256C13.5654 8.3886 13.6784 8.4073 13.808 8.40689C14.0751 8.40601 14.2156 8.34646 14.2736 8.31441C14.2839 8.30866 14.2936 8.29876 14.2815 8.27022L14.221 8.10096C14.2117 8.0757 14.1862 8.08484 14.1862 8.08484C14.1199 8.10957 14.0261 8.1537 13.8066 8.15323C13.6633 8.153 13.5571 8.11063 13.4903 8.04446C13.4221 7.97677 13.3885 7.87737 13.3829 7.73694L14.3072 7.73764C14.3072 7.73764 14.3316 7.73741 14.3341 7.71362C14.3351 7.70377 14.3658 7.52372 14.3065 7.31549ZM5.98253 7.50872C5.9956 7.42075 6.01974 7.34767 6.05725 7.29058C6.11399 7.20414 6.20014 7.15649 6.32163 7.15649C6.44307 7.15649 6.52307 7.20419 6.58074 7.29064C6.61878 7.34778 6.63542 7.42392 6.64193 7.50884L5.98253 7.50872ZM6.90203 7.31549C6.87882 7.22793 6.82144 7.13949 6.78382 7.09905C6.72433 7.03493 6.66613 6.99004 6.60823 6.96525C6.5245 6.92969 6.43446 6.91141 6.34349 6.91151C6.2281 6.91151 6.12325 6.93102 6.03821 6.97087C5.95305 7.01085 5.88149 7.06547 5.82528 7.13334C5.76919 7.20115 5.72706 7.28185 5.70004 7.3734C5.67314 7.46441 5.6596 7.56364 5.6596 7.66843C5.6596 7.77498 5.6736 7.87432 5.70156 7.96364C5.72957 8.05372 5.7747 8.13278 5.83542 8.1986C5.89626 8.26465 5.97444 8.31646 6.06792 8.35256C6.16099 8.3886 6.27387 8.4073 6.40357 8.40689C6.67064 8.40601 6.81119 8.34646 6.86921 8.31441C6.87941 8.30866 6.88914 8.29876 6.877 8.27022L6.81658 8.10096C6.80726 8.0757 6.78171 8.08484 6.78171 8.08484C6.71548 8.10957 6.62165 8.1537 6.40216 8.15323C6.25886 8.153 6.15261 8.11063 6.08585 8.04446C6.01763 7.97677 5.98405 7.87737 5.97837 7.73694L6.90279 7.73764C6.90279 7.73764 6.92717 7.73741 6.92969 7.71362C6.93069 7.70377 6.9614 7.52372 6.90203 7.31549ZM3.98417 8.11414C3.94789 8.08519 3.94285 8.0781 3.93084 8.05929C3.91249 8.03098 3.90311 7.99066 3.90311 7.93902C3.90311 7.85785 3.93007 7.79936 3.98563 7.76009C3.98505 7.76021 4.06534 7.69082 4.25377 7.69328C4.33782 7.69477 4.42169 7.70192 4.50478 7.71467V8.13489H4.5049C4.5049 8.13489 4.38739 8.16015 4.25511 8.16812C4.0671 8.17943 3.98358 8.11397 3.98417 8.11414ZM4.35205 7.46441C4.31454 7.46166 4.26596 7.46031 4.2077 7.46031C4.12852 7.46031 4.05192 7.47016 3.98001 7.4895C3.9078 7.50896 3.84286 7.53908 3.78701 7.57899C3.73119 7.61887 3.68529 7.67104 3.65286 7.73149C3.6201 7.7925 3.60339 7.86418 3.60339 7.94453C3.60339 8.02652 3.61763 8.09756 3.64577 8.15558C3.67329 8.21311 3.71472 8.26286 3.76632 8.30034C3.81772 8.33773 3.88114 8.36516 3.95469 8.38192C4.0273 8.39851 4.10959 8.40689 4.19949 8.40689C4.29444 8.40689 4.38886 8.39892 4.48034 8.38351C4.55827 8.37008 4.63591 8.35499 4.71319 8.33826C4.74402 8.33117 4.77801 8.32185 4.77801 8.32185C4.80087 8.31605 4.79911 8.29161 4.79911 8.29161L4.79859 7.44613C4.79859 7.26069 4.74912 7.12331 4.65166 7.03798C4.55466 6.95306 4.41183 6.91016 4.22704 6.91016C4.15765 6.91016 4.04618 6.91953 3.97925 6.93296C3.97925 6.93296 3.7774 6.97211 3.69429 7.03722C3.69429 7.03722 3.67601 7.04847 3.68597 7.07397L3.75144 7.24979C3.75958 7.27259 3.78179 7.26479 3.78179 7.26479C3.78179 7.26479 3.78877 7.26204 3.79697 7.25718C3.97479 7.16047 4.19979 7.16334 4.19979 7.16334C4.29966 7.16334 4.37661 7.18356 4.4283 7.22312C4.47876 7.26186 4.50437 7.32018 4.50437 7.44343V7.48252C4.42508 7.47104 4.35205 7.46441 4.35205 7.46441ZM11.809 6.98811C11.8104 6.98502 11.8111 6.98169 11.8111 6.97832C11.8111 6.97496 11.8105 6.97162 11.8092 6.96852C11.8079 6.96541 11.806 6.9626 11.8036 6.96024C11.8011 6.95789 11.7983 6.95604 11.7952 6.95482C11.7794 6.94884 11.7008 6.93225 11.6402 6.9285C11.524 6.92123 11.4596 6.94081 11.4018 6.96683C11.3445 6.99268 11.281 7.03446 11.2456 7.08211L11.2455 6.96935C11.2455 6.95388 11.2345 6.9414 11.2189 6.9414H10.9819C10.9666 6.9414 10.9554 6.95388 10.9554 6.96935V8.34852C10.9554 8.35596 10.9584 8.36309 10.9637 8.36835C10.9689 8.37361 10.9761 8.37657 10.9835 8.37659H11.2264C11.2339 8.37657 11.241 8.37361 11.2462 8.36835C11.2515 8.36308 11.2544 8.35595 11.2544 8.34852V7.65958C11.2544 7.56704 11.2646 7.47485 11.285 7.41688C11.305 7.3595 11.3323 7.31379 11.366 7.28091C11.398 7.24918 11.4372 7.22562 11.4802 7.21222C11.5205 7.20065 11.5623 7.19477 11.6042 7.19476C11.6526 7.19476 11.7058 7.20718 11.7058 7.20718C11.7236 7.20918 11.7335 7.19827 11.7395 7.18222C11.7554 7.13996 11.8004 7.01331 11.809 6.98811Z" fill="#FFFFFE"/>
<path fill-rule="evenodd" clip-rule="evenodd" d="M9.52901 6.34884C9.49901 6.33977 9.4685 6.33253 9.43764 6.32715C9.39612 6.32022 9.35407 6.31697 9.31198 6.31742C9.14477 6.31742 9.01296 6.36466 8.92042 6.45797C8.82852 6.55057 8.76599 6.69164 8.73463 6.87725L8.72332 6.9399H8.51345C8.51345 6.9399 8.48783 6.93885 8.48244 6.9668L8.44798 7.15904C8.44558 7.17744 8.45349 7.18893 8.47811 7.18881H8.68241L8.47512 8.34591C8.45888 8.4391 8.4403 8.51575 8.41973 8.57384C8.39945 8.63115 8.37964 8.67411 8.35526 8.70529C8.33164 8.73548 8.30925 8.75769 8.27063 8.77064C8.23875 8.78137 8.20206 8.78629 8.16186 8.78629C8.13947 8.78629 8.10969 8.78254 8.08772 8.77814C8.06574 8.77381 8.05431 8.76888 8.03784 8.76197C8.03784 8.76197 8.01387 8.75282 8.00443 8.77685C7.99676 8.79649 7.94231 8.94623 7.93586 8.96475C7.9293 8.98304 7.9385 8.99745 7.95011 9.00162C7.9773 9.01134 7.99752 9.01756 8.03456 9.02629C8.08602 9.03842 8.12939 9.03918 8.17 9.03918C8.2551 9.03918 8.33264 9.02723 8.39693 9.00402C8.46164 8.98063 8.51796 8.9399 8.56778 8.88475C8.62164 8.82526 8.65551 8.76296 8.68792 8.67798C8.71998 8.59376 8.74729 8.48921 8.76915 8.36736L8.97745 7.18881H9.28197C9.28197 7.18881 9.30764 7.18975 9.31298 7.16191L9.34744 6.96967C9.34984 6.95127 9.34199 6.93978 9.31725 6.9399H9.02169C9.02316 6.93322 9.03658 6.82925 9.07052 6.73137C9.08499 6.68959 9.11224 6.65589 9.13534 6.63274C9.15689 6.61069 9.18345 6.59416 9.21276 6.58456C9.24488 6.57463 9.27836 6.5698 9.31198 6.57026C9.33982 6.57026 9.36713 6.5736 9.38794 6.57794C9.4166 6.58403 9.42773 6.58726 9.43523 6.58948C9.46536 6.59868 9.4694 6.58978 9.47532 6.57518L9.546 6.38107C9.55327 6.36021 9.53557 6.35142 9.52901 6.34884ZM5.39866 8.34837C5.39866 8.36384 5.38764 8.37644 5.37217 8.37644H5.12701C5.11148 8.37644 5.10046 8.36384 5.10046 8.34837V6.37515C5.10046 6.35974 5.11148 6.34726 5.12701 6.34726H5.37217C5.38764 6.34726 5.39866 6.35974 5.39866 6.37515V8.34837Z" fill="#FFFFFE"/>
</g>
<defs>
<clipPath id="clip0_2173_376">
<rect width="16" height="16" fill="white"/>
</clipPath>
</defs>
</svg>
