<svg width="35" height="36" viewBox="0 0 35 36" fill="none" xmlns="http://www.w3.org/2000/svg">
<g clip-path="url(#clip0_2182_544)">
<path d="M33.6749 11.616H13.9343C13.5584 11.616 13.2537 11.9197 13.2537 12.2944V14.5864C13.2537 14.9611 13.5584 15.2649 13.9343 15.2649H33.6749C34.0508 15.2649 34.3555 14.9611 34.3555 14.5864V12.2944C34.3555 11.9197 34.0508 11.616 33.6749 11.616Z" fill="#52BD94"/>
<path d="M20.6183 20.7351H0.877649C0.501749 20.7351 0.197021 21.0389 0.197021 21.4136V23.7056C0.197021 24.0803 0.501749 24.384 0.877649 24.384H20.6183C20.9942 24.384 21.2989 24.0803 21.2989 23.7056V21.4136C21.2989 21.0389 20.9942 20.7351 20.6183 20.7351Z" fill="#52BD94"/>
<path fill-rule="evenodd" clip-rule="evenodd" d="M2.73072 14.1139C2.90237 14.1582 3.08457 14.1346 3.23912 14.0479C3.39368 13.9613 3.50858 13.8184 3.55977 13.6491C4.64996 10.2363 6.98063 7.35288 10.0942 5.56513C13.2077 3.77738 16.8792 3.2144 20.3878 3.98674C20.5574 4.02194 20.7341 3.99077 20.8813 3.89967C21.0285 3.80858 21.1349 3.66455 21.1785 3.4974L21.7741 1.28163C21.7976 1.19249 21.8027 1.09953 21.7892 1.00836C21.7757 0.917186 21.7438 0.829689 21.6954 0.751144C21.647 0.672598 21.5832 0.604631 21.5078 0.551342C21.4323 0.498053 21.3469 0.460544 21.2565 0.441079C16.8232 -0.55545 12.1759 0.150489 8.24155 2.4181C4.30721 4.68572 1.37493 8.34836 0.0295311 12.6755C0.00384438 12.7623 -0.00409027 12.8533 0.00619829 12.9432C0.0164868 13.0331 0.0447888 13.12 0.089424 13.1988C0.134059 13.2776 0.194117 13.3466 0.266033 13.4018C0.337949 13.457 0.420255 13.4972 0.508067 13.5201L2.73072 14.1139Z" fill="#52BD94"/>
<path fill-rule="evenodd" clip-rule="evenodd" d="M31.8293 21.8861C31.6577 21.8418 31.4755 21.8654 31.321 21.9521C31.1665 22.0387 31.0516 22.1816 31.0004 22.3508C29.9103 25.7638 27.5796 28.6472 24.466 30.435C21.3524 32.2227 17.6809 32.7857 14.1723 32.0133C14.0027 31.9781 13.826 32.0093 13.6789 32.1004C13.5317 32.1915 13.4253 32.3355 13.3817 32.5026L12.7863 34.7184C12.7628 34.8075 12.7576 34.9005 12.7712 34.9917C12.7847 35.0828 12.8166 35.1703 12.865 35.2489C12.9133 35.3274 12.9772 35.3954 13.0526 35.4487C13.128 35.502 13.2135 35.5395 13.3039 35.5589C17.7372 36.5555 22.3845 35.8495 26.3188 33.5819C30.2532 31.3143 33.1855 27.6517 34.5309 23.3245C34.5565 23.2377 34.5645 23.1467 34.5542 23.0568C34.5439 22.9669 34.5156 22.88 34.471 22.8012C34.4263 22.7224 34.3663 22.6534 34.2944 22.5982C34.2224 22.543 34.1401 22.5028 34.0523 22.4799L31.8293 21.8861Z" fill="#52BD94"/>
<path d="M27.7102 7.60942C28.8187 7.60942 29.7172 6.7137 29.7172 5.60879C29.7172 4.50387 28.8187 3.60815 27.7102 3.60815C26.6018 3.60815 25.7032 4.50387 25.7032 5.60879C25.7032 6.7137 26.6018 7.60942 27.7102 7.60942Z" fill="#52BD94"/>
<path d="M6.84927 32.3919C7.9577 32.3919 8.85626 31.4962 8.85626 30.3913C8.85626 29.2863 7.9577 28.3906 6.84927 28.3906C5.74084 28.3906 4.84229 29.2863 4.84229 30.3913C4.84229 31.4962 5.74084 32.3919 6.84927 32.3919Z" fill="#52BD94"/>
</g>
<defs>
<clipPath id="clip0_2182_544">
<rect width="34.56" height="36" fill="white"/>
</clipPath>
</defs>
</svg>
