<svg width="16" height="16" viewBox="0 0 16 16" fill="none" xmlns="http://www.w3.org/2000/svg">
<path fill-rule="evenodd" clip-rule="evenodd" d="M15.499 6.90566L13.6054 8L15.499 9.08511C15.6122 9.15076 15.7115 9.23813 15.7911 9.34225C15.8706 9.44636 15.929 9.56517 15.9628 9.6919C15.9966 9.81863 16.0051 9.95079 15.988 10.0808C15.9709 10.2109 15.9284 10.3363 15.8629 10.4499C15.7974 10.5634 15.7103 10.663 15.6065 10.7428C15.5027 10.8226 15.3843 10.8811 15.2579 10.915C15.1316 10.9489 14.9998 10.9575 14.8701 10.9403C14.7405 10.9231 14.6154 10.8805 14.5022 10.8148L11.1094 8.85448C10.9539 8.76425 10.8255 8.6336 10.7379 8.4763C10.6503 8.31901 10.6066 8.14091 10.6115 7.96079C10.6142 7.88277 10.6262 7.80534 10.6472 7.73016C10.7166 7.47807 10.8817 7.26325 11.1071 7.13168L14.4999 5.17825C14.6136 5.11233 14.7392 5.06955 14.8695 5.05236C14.9997 5.03517 15.132 5.04391 15.2589 5.07808C15.3858 5.11225 15.5047 5.17117 15.6088 5.25148C15.7129 5.33179 15.8003 5.4319 15.8658 5.5461C15.9316 5.6593 15.9743 5.78448 15.9914 5.91438C16.0086 6.04428 15.9999 6.1763 15.9658 6.30278C15.9316 6.42926 15.8728 6.54769 15.7927 6.65118C15.7126 6.75468 15.6127 6.84118 15.499 6.90566ZM13.7066 12.2101L10.3149 10.2533C10.1632 10.1659 9.99127 10.1199 9.81631 10.1198C9.64135 10.1198 9.46942 10.1656 9.3176 10.2528C9.16578 10.34 9.03936 10.4656 8.9509 10.617C8.86244 10.7684 8.81502 10.9403 8.81336 11.1158V15.025C8.82215 15.2847 8.9312 15.5309 9.1175 15.7115C9.3038 15.8921 9.55278 15.9931 9.8119 15.9931C10.071 15.9931 10.32 15.8921 10.5063 15.7115C10.6926 15.5309 10.8016 15.2847 10.8104 15.025V12.834L12.7086 13.9283C12.8219 13.9941 12.9469 14.0368 13.0766 14.054C13.2063 14.0713 13.3381 14.0627 13.4645 14.0289C13.5909 13.9951 13.7094 13.9366 13.8133 13.8568C13.9172 13.777 14.0044 13.6775 14.0699 13.5639C14.1354 13.4504 14.178 13.325 14.1952 13.1949C14.2124 13.0648 14.2039 12.9326 14.1702 12.8058C14.1364 12.679 14.0781 12.5602 13.9986 12.456C13.9191 12.3518 13.8198 12.2643 13.7066 12.1986V12.2101ZM9.79752 8.38631L8.38336 9.78738C8.33498 9.8325 8.27228 9.85904 8.2063 9.86234H7.79125C7.72543 9.85837 7.66294 9.83192 7.6142 9.78738L6.20808 8.38169C6.1641 8.33355 6.13809 8.27161 6.1345 8.20641V7.79128C6.1383 7.72579 6.16425 7.66355 6.20808 7.61485L7.6142 6.20916C7.66305 6.16496 7.72555 6.13891 7.79125 6.13536H8.2063C8.27211 6.13844 8.33476 6.16455 8.38336 6.20916L9.79292 7.61485C9.83641 7.66366 9.86197 7.72591 9.86536 7.79128V8.20641C9.86217 8.27149 9.83657 8.33344 9.79292 8.38169L9.79752 8.38631ZM8.67079 7.99654C8.66536 7.92931 8.6374 7.86591 8.59146 7.81665L8.18331 7.41189C8.1344 7.36777 8.07193 7.34173 8.00625 7.33809H7.9913C7.92592 7.34153 7.86375 7.36761 7.8154 7.41189L7.40724 7.81665C7.36343 7.86617 7.33786 7.92925 7.33481 7.99539V8.01038C7.33771 8.07552 7.36335 8.13756 7.40724 8.18566L7.8177 8.58926C7.86615 8.63338 7.92826 8.65944 7.9936 8.66306H8.00855C8.07423 8.65942 8.1367 8.63338 8.18561 8.58926L8.59376 8.1822C8.63785 8.13401 8.66421 8.07218 8.66849 8.00692L8.67079 7.99654ZM2.29097 3.78985L5.68381 5.74098C5.83572 5.82829 6.00776 5.87423 6.18285 5.87422C6.35794 5.87422 6.52998 5.82828 6.68189 5.74097C6.8338 5.65365 6.9603 5.528 7.04882 5.37649C7.13734 5.22498 7.1848 5.05287 7.1865 4.87727V0.971557C7.17771 0.711822 7.06866 0.46567 6.88236 0.285047C6.69605 0.104424 6.44707 0.00345945 6.18796 0.00345945C5.92885 0.00345945 5.67987 0.104424 5.49357 0.285047C5.30727 0.46567 5.19821 0.711822 5.18942 0.971557V3.16254L3.28893 2.06705C3.17569 2.00133 3.05065 1.95862 2.92096 1.94136C2.79127 1.92411 2.65945 1.93264 2.53305 1.96648C2.40664 2.00031 2.28812 2.05879 2.18424 2.13857C2.08037 2.21835 1.99318 2.31787 1.92765 2.43144C1.86213 2.54502 1.81955 2.67043 1.80234 2.80051C1.78514 2.93059 1.79364 3.06279 1.82738 3.18958C1.86112 3.31636 1.91942 3.43524 1.99896 3.53942C2.07851 3.6436 2.17773 3.73105 2.29097 3.79677V3.78985ZM9.73659 5.87475C9.93694 5.89064 10.1374 5.8452 10.3115 5.74444L13.7031 3.78409C13.8164 3.71837 13.9156 3.63092 13.9951 3.52673C14.0747 3.42255 14.133 3.30367 14.1667 3.17689C14.2005 3.05011 14.209 2.9179 14.1918 2.78782C14.1746 2.65774 14.132 2.53233 14.0665 2.41876C14.0009 2.30518 13.9137 2.20567 13.8099 2.12589C13.706 2.04611 13.5875 1.98763 13.4611 1.95379C13.2058 1.88546 12.9339 1.92163 12.7052 2.05436L10.807 3.15908V0.968098C10.7982 0.708363 10.6891 0.462211 10.5028 0.281588C10.3165 0.100965 10.0676 0 9.80845 0C9.54933 0 9.30035 0.100965 9.11405 0.281588C8.92775 0.462211 8.8187 0.708363 8.80991 0.968098V4.87727C8.80959 5.13036 8.9051 5.37413 9.07713 5.5593C9.24915 5.74447 9.48486 5.85721 9.73659 5.87475ZM6.26327 10.1229C6.06289 10.1066 5.86231 10.1521 5.68841 10.2533L2.29097 12.2055C2.06227 12.3383 1.89552 12.5567 1.82738 12.8127C1.75925 13.0688 1.79532 13.3415 1.92765 13.5709C2.05999 13.8002 2.27776 13.9675 2.53305 14.0358C2.78834 14.1042 3.06023 14.068 3.28893 13.9353L5.18942 12.8409V15.0319C5.19821 15.2916 5.30727 15.5378 5.49357 15.7184C5.67987 15.899 5.92885 16 6.18796 16C6.44707 16 6.69605 15.899 6.88236 15.7184C7.06866 15.5378 7.17771 15.2916 7.1865 15.0319V11.1158C7.18598 10.864 7.09052 10.6217 6.91928 10.4375C6.74804 10.2534 6.51369 10.141 6.26327 10.1229ZM5.34349 8.2929C5.40898 8.07689 5.39911 7.84493 5.31551 7.6353C5.2319 7.42567 5.07956 7.25087 4.8836 7.13975L1.49421 5.18055C1.2653 5.04905 0.993833 5.01368 0.739027 5.08216C0.484221 5.15064 0.266759 5.31742 0.134082 5.5461C0.0683979 5.65927 0.025739 5.78439 0.00857314 5.9142C-0.0085927 6.04401 7.52711e-05 6.17596 0.0340756 6.30239C0.068076 6.42882 0.126734 6.54724 0.206656 6.65079C0.286578 6.75434 0.386178 6.84097 0.499695 6.90566L2.39329 8L0.499695 9.08511C0.386457 9.15061 0.287189 9.23783 0.207561 9.34181C0.127932 9.44578 0.0695008 9.56446 0.0356039 9.69109C0.00170696 9.81771 -0.00699203 9.94979 0.0100035 10.0798C0.0269991 10.2098 0.0693564 10.3351 0.134657 10.4487C0.199958 10.5623 0.286923 10.6619 0.390587 10.7417C0.494251 10.8216 0.612584 10.8802 0.73883 10.9142C0.865076 10.9482 0.996763 10.9569 1.12637 10.9399C1.25598 10.9228 1.38097 10.8803 1.49421 10.8148L4.8836 8.85448C5.10186 8.73226 5.2658 8.53158 5.34234 8.2929H5.34349Z" fill="#29B5E8"/>
</svg>
