<svg width="16" height="16" viewBox="0 0 16 16" fill="none" xmlns="http://www.w3.org/2000/svg">
<g clip-path="url(#clip0_2173_494)">
<path d="M3.99075 2.8878C4.73328 3.17828 5.46677 3.49883 6.21339 3.77927C6.2693 3.80027 6.34035 3.82205 6.39646 3.80217C6.50581 3.69042 6.59466 3.49424 6.66911 3.35388C6.90869 2.90227 7.15663 2.45872 7.39152 2.00445L7.74972 1.32503C7.7958 1.23708 7.88616 1.01268 7.96047 0.96875C8.02425 0.976006 8.07072 1.01066 8.10167 1.06746C8.49405 1.78778 8.86068 2.52178 9.25907 3.2396C9.27997 3.27728 9.49239 3.66272 9.49378 3.68395C9.49235 3.73808 9.50036 3.8306 9.53661 3.87303C9.70185 3.9153 10.3009 3.64078 10.4914 3.56311L11.872 3.00736C12.0228 2.9482 12.4975 2.71605 12.6411 2.80397C12.6261 2.85586 12.6377 2.98039 12.6406 3.03992C12.6256 3.23328 12.5703 3.37638 12.5331 3.56299L12.2038 5.132C12.1709 5.28466 12.0574 5.77211 12.0471 5.90344C12.9495 6.23188 13.8811 6.49911 14.7889 6.81442C14.8787 6.84564 15.135 6.89961 15.2006 6.93666C15.173 7.09875 14.2027 7.80325 14.0203 7.94592C13.8298 8.09503 12.67 8.97741 12.6327 9.05295C12.5811 9.15766 14.1218 11.4347 14.2768 11.7696C14.2945 11.8077 14.3004 11.8575 14.3079 11.8988L14.3453 11.9414L14.3375 11.9627C14.2415 11.9738 14.2276 11.9087 14.1394 11.9157C13.8349 11.9398 13.5428 11.9027 13.2399 11.892C12.8596 11.8785 12.4776 11.8828 12.097 11.8748C11.8707 11.8688 11.201 11.876 11.0091 11.8282C10.8649 12.5713 10.7939 13.3565 10.6688 14.1044C10.6403 14.2747 10.5702 14.9789 10.4917 15.1165C10.4136 15.1094 10.0475 14.7564 9.95499 14.6742C9.62972 14.3908 9.30774 14.1038 8.98908 13.8131C8.69461 13.5427 8.31791 13.1474 7.96791 12.9689C7.60299 13.243 7.27264 13.579 6.93241 13.8838C6.50282 14.2686 6.06122 14.6392 5.64808 15.0421C5.61972 15.0697 5.57241 15.0986 5.53372 15.1098C5.50124 15.0969 5.49528 15.1018 5.48422 15.0676C5.38742 14.7674 5.36113 14.3804 5.31628 14.0659C5.21739 13.3222 5.1093 12.5797 4.992 11.8386C4.02833 11.8972 3.07083 11.8539 2.10924 11.9305C2.01047 11.9384 1.89633 11.9231 1.7961 11.9289C1.73058 11.9325 1.73967 11.987 1.66364 11.9796C1.64253 11.8993 1.74111 11.7257 1.78542 11.6519C2.13303 11.0731 2.50467 10.5044 2.85685 9.92871C3.01057 9.67741 3.26627 9.31406 3.36863 9.05136C3.16782 8.8573 2.84347 8.62485 2.61441 8.44822L1.45139 7.53777C1.22216 7.35624 0.947309 7.16128 0.768776 6.93622C0.988288 6.89578 3.77369 5.99208 3.89669 5.91297C3.94566 5.7623 3.79677 5.16267 3.75791 4.97924L3.49008 3.72513C3.47394 3.65225 3.38325 3.26033 3.38208 3.22481C3.42578 3.08124 3.39739 2.93656 3.42886 2.84024C3.49482 2.7653 3.6826 2.80005 3.76169 2.8355C3.75853 2.86939 3.7646 2.85461 3.74217 2.88102L3.74532 2.90375C3.81042 2.93636 3.91833 2.90352 3.99075 2.8878Z" fill="black"/>
<path d="M9.49378 3.68404C9.56672 3.82994 9.6108 3.83401 9.77183 3.77873C10.0133 3.69581 10.2523 3.59319 10.4895 3.4975L11.8975 2.92459C12.0247 2.87273 12.6229 2.59422 12.728 2.65986C12.7294 2.69467 12.6534 2.97128 12.6406 3.04001C12.6377 2.98048 12.6261 2.85595 12.6411 2.80406C12.4975 2.71614 12.0228 2.94829 11.872 3.00745L10.4914 3.5632C10.3009 3.64087 9.70185 3.91539 9.53661 3.87312C9.50036 3.83069 9.49234 3.73817 9.49378 3.68404Z" fill="black" fill-opacity="0.882353"/>
<path d="M3.23956 2.61816C3.45316 2.65798 3.78581 2.80257 3.99075 2.88755C3.91833 2.90327 3.81042 2.93612 3.74531 2.90351L3.74217 2.88077C3.76459 2.85437 3.75853 2.86915 3.76169 2.83526C3.68259 2.7998 3.49481 2.76505 3.42886 2.83999C3.39739 2.93632 3.42578 3.08099 3.38208 3.22457C3.3425 2.98134 3.31803 2.85134 3.23956 2.61816Z" fill="black" fill-opacity="0.929412"/>
</g>
<defs>
<clipPath id="clip0_2173_494">
<rect width="16" height="16" fill="white"/>
</clipPath>
</defs>
</svg>
