<svg width="36" height="36" viewBox="0 0 36 36" fill="none" xmlns="http://www.w3.org/2000/svg">
<path d="M32.0727 0H3.92727C1.71818 0 0 1.71818 0 3.92727V32.0727C0 34.2818 1.71818 36 3.92727 36H32.0727C34.2818 36 36 34.2818 36 32.0727V3.92727C36 1.71818 34.2818 0 32.0727 0ZM9.81818 10.1455C9.81818 9.98182 9.98182 9.81818 10.0636 9.81818H19.1455C19.3091 9.81818 19.3909 9.98182 19.3909 10.1455V11.2091C19.3909 11.3727 19.2273 11.5364 19.1455 11.5364H11.5364V14.0727C11.5364 14.2364 11.3727 14.4 11.2909 14.4H10.1455C9.98182 14.4 9.9 14.2364 9.9 14.0727V10.1455H9.81818ZM26.1818 25.8545C26.1818 26.0182 26.0182 26.1818 25.9364 26.1818H17.5909C17.4273 26.1818 17.3455 26.0182 17.3455 25.8545V24.7091C17.3455 24.5455 17.5091 24.3818 17.5909 24.3818H24.4636V21.7636C24.4636 21.6 24.6273 21.4364 24.7909 21.4364H25.9364C26.1 21.4364 26.1818 21.6 26.1818 21.7636V25.8545ZM26.1818 13.9909C26.1818 14.1545 26.0182 14.3182 25.9364 14.3182H24.7909C24.6273 14.3182 24.4636 14.1545 24.4636 13.9909V12.7636L12.3545 24.4636H14.8091C14.9727 24.4636 15.1364 24.6273 15.1364 24.7909V25.9364C15.1364 26.1 14.9727 26.2636 14.8909 26.2636H10.1455C9.98182 26.2636 9.81818 26.1 9.9 25.9364V24.5455L23.3182 11.6182H21.9273C21.7636 11.6182 21.6 11.4545 21.6818 11.2909V10.1455C21.6818 9.98182 21.8455 9.81818 21.9273 9.81818H25.9364C26.1 9.81818 26.1818 9.98182 26.1818 10.1455V13.9909Z" fill="#F44238"/>
<path d="M25.9364 21.5186H24.7909C24.6273 21.5186 24.4637 21.6822 24.4637 21.8458V24.464H17.5909C17.4273 24.464 17.2637 24.6276 17.3455 24.7913V25.9367C17.3455 26.1004 17.5091 26.264 17.5909 26.264H25.9364C26.1 26.264 26.1819 26.1004 26.1819 25.9367V21.9276C26.1819 21.6822 26.0182 21.5186 25.9364 21.5186Z" fill="white"/>
<path d="M10.0636 14.3186H11.2091C11.3727 14.3186 11.4545 14.155 11.4545 13.9914V11.455H19.0636C19.2272 11.455 19.3091 11.2914 19.3091 11.1277V10.0641C19.3091 9.90045 19.1454 9.73682 19.0636 9.73682H10.0636C9.89997 9.73682 9.73633 9.90045 9.81815 10.0641V13.9914C9.81815 14.155 9.98179 14.3186 10.0636 14.3186Z" fill="white"/>
<path d="M25.9364 9.81885H21.9273C21.7637 9.81885 21.6819 9.98248 21.6819 10.1461V11.2916C21.6819 11.4552 21.8455 11.6188 21.9273 11.6188H23.3182L9.81824 24.4643V25.8552C9.81824 26.0188 9.98187 26.1825 10.0637 26.1825H14.8091C14.9728 26.1825 15.1364 26.0188 15.0546 25.8552V24.7098C15.0546 24.5461 14.891 24.3825 14.7273 24.3825H12.2728L24.3819 12.6825V13.9098C24.3819 14.0734 24.5455 14.237 24.7091 14.237H25.8546C26.0182 14.237 26.1001 14.0734 26.1001 13.9098V10.0643C26.1819 9.98248 26.0182 9.81885 25.9364 9.81885Z" fill="white"/>
</svg>
